<?xml version="1.0" encoding="UTF-8"?>
<svg id="blob" xmlns="http://www.w3.org/2000/svg" width="350" height="350.67" viewBox="0 0 350 350.67">

  <path fill="#C47556" class="blobpath" d="M95.5,37.41c21.43-14.36,23.21-21.91,41.93-29.57,5.47-2.24,25.24-9.75,50.92-6.57,9.41,1.16,53.03,7.89,75.48,44.68,18.72,30.68,5.56,54.16,25.76,72.94,17.72,16.47,33.43,3.58,47.32,18.4,21.83,23.28,14.65,88.73-16.77,118.28-21.51,20.22-38.09,8.31-58.71,31.54-21.86,24.64-13.58,49.73-32.35,59.8-20.86,11.19-50.33-9.48-59.31-15.77-30.34-21.28-27.45-41.86-52.12-51.91-25.8-10.51-39.9,7.54-53.91-4.6-18.09-15.68,2.85-48.01-15.58-83.45-15.41-29.64-39.3-24.81-46.13-50.6-6.49-24.52,8.61-53.43,23.96-69,20.17-20.45,32.11-9.12,69.49-34.17Z"/>
</svg>