<?xml version="1.0" encoding="utf-8"?>
<!-- Generator: Adobe Illustrator 26.3.0, SVG Export Plug-In . SVG Version: 6.00 Build 0)  -->
<svg version="1.1" id="Layer_1" xmlns="http://www.w3.org/2000/svg" xmlns:xlink="http://www.w3.org/1999/xlink" x="0px" y="0px"
	 viewBox="0 0 169.01 171.83" style="enable-background:new 0 0 169.01 171.83;" xml:space="preserve">
<style type="text/css">
	.st0{fill:none;}
	.st1{enable-background:new    ;}
	.st2{fill:#C47555;}
	.st3{fill:none;stroke:#000000;stroke-miterlimit:10;}
</style>
<g>
	<path id="SVGID_x5F_1_x5F_" class="st0" d="M110.88,37.58c23.17,12.59,31.75,41.58,19.16,64.76
		c-12.59,23.17-41.58,31.75-64.76,19.16S33.53,79.92,46.12,56.74S87.71,24.99,110.88,37.58z"/>
	<text>	<textPath  xlink:href="#SVGID_x5F_1_x5F_" startOffset="29.1776%">
<tspan  style="font-family:'BookmanOldStyle'; font-size:12.8866px;">Iris Gelissen</tspan>	</textPath>
</text>
	<g class="st1">
		<g>
			
				<ellipse transform="matrix(0.9871 -0.1602 0.1602 0.9871 -11.6594 15.158)" class="st2" cx="88.19" cy="79.9" rx="35.95" ry="35.95"/>
		</g>
	</g>
	<g>
		<path class="st3" d="M68.22,88.7c-0.5-0.07-1.24-0.24-1.96-0.74c-1.76-1.22-2.02-3.47-2.36-6.39c-0.23-2-0.45-4.02,0.32-6.53
			c0.34-1.13,0.73-2.45,1.73-3.6c2.43-2.79,6.72-2.51,8.05-2.44c0.87,0.05,0.39,0.11,4.77,0.75c2.04,0.3,3.3,0.46,4.82,0.03
			c0.81-0.23,2.31-0.64,2.51-1.6c0.21-1.02-1.17-2.19-2.3-2.71c-1.23-0.56-1.76-0.15-3.42-0.42c-1.63-0.26-1.96-0.78-4.59-1.96
			c-2.98-1.33-2.91-0.83-4.68-1.75c-2.57-1.34-4.13-3.14-5.19-4.38c-1.59-1.87-2.59-3.04-3.05-5c-0.49-2.08-0.06-3.72,0.47-5.72
			c0.63-2.41,1.32-2.86,1.69-3.03c0.69-0.32,1.53-0.26,2.16,0.03c0.74,0.34,0.99,0.92,1.46,1.56c1.19,1.64,2.79,2.42,3.59,2.81
			c1.42,0.69,1.57,0.21,4.18,0.84c1.19,0.29,2.98,0.74,4.96,1.92c0.87,0.52,2.29,1.38,3.58,2.96c1.15,1.41,1.64,2.62,1.64,2.62
			c0.46,0.89,0.71,1.51,0.9,1.48c0.28-0.05,0.21-1.33,0.23-1.93c0.13-3.42,2.24-5.97,3.17-7.09c1.47-1.78,3.24-2.7,6.78-4.56
			c2.41-1.26,3.67-1.91,5.57-2.07c1.31-0.11,0.86,0.18,4.72,0.38c1.76,0.09,2.76,0.08,3.18,0.76c0.32,0.53,0.18,1.31-0.07,1.79
			c-0.37,0.71-0.9,0.66-1.4,1.33c-0.55,0.72-0.36,1.35-0.55,2.33c-0.26,1.31-0.98,2.15-1.84,3.16c-1.42,1.66-3.02,2.45-4.13,2.98
			c-1.05,0.5-1.04,0.35-2.6,1.01c-1.46,0.62-2.7,1.15-3.99,2.05c-1.08,0.76-2.84,2-3.8,4.16c-0.91,2.06-0.62,3.92-1.04,3.95
			c-0.3,0.02-0.66-0.92-0.8-1.72c-0.21-1.29,0.13-2.41,0.91-4.1c0.77-1.68,1.51-3.27,3.02-5.23c1.52-1.97,3.02-3.26,3.77-3.87
			c2.18-1.77,3.84-2.45,3.75-2.65c-0.1-0.21-2.1,0.32-4,1.4c-1.9,1.07-3.09,2.34-3.7,3.01c-1.33,1.44-2.07,2.74-2.6,3.68
			c-0.54,0.96-1.33,2.37-1.87,4.39c-0.43,1.62-0.72,2.75-0.34,4.15c0.35,1.28,1.09,2.11,1.39,2.42c1.3,1.34,2.89,1.62,3.6,1.73
			c2.62,0.43,4.72-0.7,5.72-1.26c1.41-0.79,2.34-1.79,4.13-3.77c2.34-2.59,1.96-2.77,4.09-5.07c1.67-1.81,2.51-2.34,3.65-4.17
			c1.04-1.66,1.27-2.7,1.16-3.65c-0.13-1.17-0.81-2.45-1.39-2.42c-0.55,0.03-0.53,1.25-1.62,3.11c-0.55,0.93-1.28,2.17-2.61,2.88
			c-1.2,0.65-1.57,0.15-3.8,0.7c-1.35,0.33-2.29,0.78-3.8,1.49c-1.79,0.85-2.68,1.27-3.62,2.01c-0.73,0.57-2.86,2.29-3.51,5.12
			c-0.2,0.86-0.47,2.05,0.2,2.9c0.67,0.86,1.92,0.87,2.74,0.87c2.36,0.02,4.11-1.26,4.6-1.64c1.41-1.1,1.21-1.68,3.06-3.93
			c1.6-1.95,2.41-2.93,3.75-3.58c1.77-0.86,2.11-0.05,6.41-0.92c2.65-0.53,3.49-1.04,3.85-1.27c1.48-0.96,1.88-1.98,2.45-1.82
			c0.84,0.24,0.96,2.77,0.71,4.6c-0.3,2.09-1.13,3.59-2.01,5.17c-0.95,1.72-1.87,2.85-2.69,3.89c-1.26,1.58-1.92,2.38-3.06,3.14
			c-1.28,0.85-2.47,1.19-3.21,1.4c-0.31,0.09-1.8,0.49-3.86,0.48c-1.32-0.01-2.35-0.22-4.41-0.65c-2.09-0.43-3.6-0.74-3.59-1.08
			c0.01-0.27,0.96-0.35,2.8-0.78c0.31-0.07,2.48-0.59,4.36-1.3c2.57-0.98,4.27-2.21,4.67-2.5c1.77-1.31,3.32-2.97,3.14-3.2
			c-0.16-0.21-1.77,0.76-4.14,2.18c-1.62,0.97-1.96,1.26-3.1,1.84c-0.47,0.24-1.6,0.79-3.13,1.33c-1.42,0.5-2.76,0.97-4.63,1.14
			c-1.47,0.13-2.63,0.02-3.09-0.04c-2.53-0.3-4.09-1.16-4.17-0.99c-0.1,0.2,1.45,1.29,3.28,2.14c0.44,0.21,1,0.44,3.64,1.31
			c3.52,1.15,3.86,1.16,4.54,1.74c0.63,0.54,0.34,0.53,2.1,2.48c0.71,0.79,1.04,1.1,1.37,1.77c0.37,0.77,0.26,1.01,0.63,2
			c0.45,1.17,0.78,1.26,1.12,2.11c0.49,1.21,0.17,1.89,0.24,3.26c0.08,1.72,0.72,3.27,1.31,4.21c1.67,2.65,4.19,2.38,4.67,4.56
			c0.16,0.73,0.09,1.74-0.46,2.12c-0.49,0.34-1.08-0.03-2-0.16c-1.75-0.26-2.53,0.65-4.04,0.9c-1.73,0.29-3.12-0.51-5.4-1.81
			c-0.55-0.32-3.14-1.84-5.51-4.91c-0.68-0.89-2.2-2.9-3.12-5.87c-0.97-3.12-0.18-3.68-1.07-7.22c-0.99-3.93-2.58-5.65-2.02-6.14
			c0.7-0.62,3.62,1.65,6.52,3.92c3.27,2.55,4.22,3.88,4.79,4.86c0.68,1.17,1.08,2.28,1.51,3.51c1.09,3.07,1.22,4.96,1.4,4.94
			c0.22-0.03,0.5-3.05-0.57-6.31c-0.2-0.6-1.05-3.09-3.29-5.6c-0.72-0.81-2.19-1.87-5.08-3.94c-4.28-3.07-5.14-3.53-6.08-3.23
			c-0.54,0.17-0.51,0.41-2.55,2.96c-1.45,1.82-2.19,2.75-3.18,3.63c-0.9,0.81-0.81,0.55-2.84,2.15c-1.12,0.88-2.14,1.69-3.33,2.83
			c-0.99,0.95-2.51,2.36-2.37,2.54c0.19,0.24,2.82-2.12,7.67-4.78c1.66-0.91,2.35-1.18,3.27-2.11c2.19-2.21,2.34-4.75,2.83-4.67
			c0.59,0.09,0.8,3.87,0.26,7.37c-0.21,1.37-0.43,2.05-0.51,3.63c-0.11,2.34,0.29,2.6,0.1,4.04c-0.38,2.9-2.39,4.8-2.72,5.11
			c-1.16,1.07-2.26,1.47-4.36,2.24c-1.2,0.44-2.69,0.97-4.7,1.06c-1.46,0.06-2.5,0.11-3.71-0.45c-2.3-1.06-3.13-3.34-3.23-3.65
			c-0.53-1.54-0.11-2.41-0.36-2.62c-0.59-0.5-4.15,2.69-4.36,2.88c-4.73,4.26-5.94,5.67-5.94,5.67
			c-10.48,10.53-18.48,19.45-24.04,25.89c-1.79,2.08-6.24,7.23-6.06,7.39c0.27,0.25,11.56-11.54,19.46-20.06
			c4.01-4.32,8.47-8.24,12.14-12.84c0.47-0.6,2.08-2.64,4.71-4.8c1.26-1.04,2.38-1.79,3.14-2.27"/>
		<path class="st3" d="M75.96,54.68c-0.09,0.22,1.57,0.89,4.25,2.65c1.36,0.89,2.04,1.34,2.72,1.95c0.84,0.75,3.01,2.69,3.93,5.72
			c0.52,1.74,0.4,3.05,0.97,3.18c0.51,0.11,1.3-0.64,1.48-1.39c0.09-0.35,0-1.03-0.17-2.39c0-0.01-0.01-0.06-0.02-0.12
			c-0.13-1.05-0.27-1.84-0.38-2.4c0,0-0.02-0.09-0.04-0.18c-0.26-1.3-1.03-4.32-1.24-4.28c-0.3,0.05,0.74,6.2,0.28,6.29
			c-0.2,0.04-0.39-1.16-1.36-2.7c-0.99-1.57-2.17-2.49-3.19-3.29c-1.79-1.39-3.39-2.06-3.92-2.26
			C77.79,54.87,76.05,54.46,75.96,54.68z"/>
	</g>
	<path class="st3" d="M76.61,85.47"/>
</g>
</svg>
