<svg id="Layer_1" data-name="Layer 1" xmlns="http://www.w3.org/2000/svg" xmlns:xlink="http://www.w3.org/1999/xlink" viewBox="0 0 1967.59 336.63"><defs><style>.cls-1{fill:none;}.cls-2{clip-path:url(#clip-path);}.cls-3{fill:#e3a655;}</style><clipPath id="clip-path"><rect class="cls-1" width="1967.59" height="336.63"/></clipPath></defs><g class="cls-2"><g id="Group_6" data-name="Group 6"><path id="Path_4" data-name="Path 4" class="cls-3" d="M17.5,271.83c-2.77,9.51-16.9,9.62-17,14-.18,8.51,52.94,24.86,115,19,49.43-4.67,49.52-18.25,89-23,69-8.31,88.06,30.88,179,43,56.15,7.48,101.76-.43,127-5,74.9-13.58,89.81-36.25,165-44a393.84,393.84,0,0,1,99,2c55.61,8.48,83.07,25.74,113,36,101.09,34.66,147.78-38.75,282-37,111.41,1.45,98.77,52.29,213,56,143.52,4.66,169-75.4,286-49,68.66,15.49,107.18,53.72,167,35,21.06-6.59,50.85-22.14,82-10,24.52,9.55,32.63,30,40,27,24.78-10.23-5.3-139.82-14-167-115-359.21-1885-41.88-1926,24-19.52,31.33-13,50-13,50,4.36,12.5,15.7,19.71,13,29"/><path id="Path_5" data-name="Path 5" class="cls-3" d="M17.5,271.83c-2.77,9.51-16.9,9.62-17,14-.18,8.51,52.94,24.86,115,19,49.43-4.67,49.52-18.25,89-23,69-8.31,88.06,30.88,179,43,56.15,7.48,101.76-.43,127-5,74.9-13.58,89.81-36.25,165-44a393.84,393.84,0,0,1,99,2c55.61,8.48,83.07,25.74,113,36,101.09,34.66,147.78-38.75,282-37,111.41,1.45,98.77,52.29,213,56,143.52,4.66,169-75.4,286-49,68.66,15.49,107.18,53.72,167,35,21.06-6.59,50.85-22.14,82-10,24.52,9.55,32.63,30,40,27,24.78-10.23-5.3-139.82-14-167-115-359.21-1885-41.88-1926,24-19.52,31.33-13,50-13,50C8.86,255.32,20.2,262.54,17.5,271.83Z"/></g></g></svg>